<svg width="18" height="17" viewBox="0 0 18 17" fill="none" xmlns="http://www.w3.org/2000/svg">
<path fill-rule="evenodd" clip-rule="evenodd" d="M11.7072 1.94287C11.4737 2.19302 11.4882 2.5841 11.7398 2.81638L13.4803 4.42374L6.36197 4.42374C6.01872 4.42374 5.74047 4.70047 5.74047 5.04183C5.74047 5.38319 6.01872 5.65992 6.36197 5.65992L13.4803 5.65992L11.7398 7.26728C11.4882 7.49956 11.4737 7.89064 11.7072 8.14079C11.9408 8.39094 12.334 8.40542 12.5856 8.17314L15.4859 5.49476C15.6126 5.37781 15.6845 5.2137 15.6845 5.04183C15.6845 4.86996 15.6126 4.70585 15.4859 4.5889L12.5856 1.91052C12.334 1.67824 11.9408 1.69273 11.7072 1.94287ZM6.40307 8.53581C6.1695 8.28566 5.77626 8.27118 5.52473 8.50346L2.62438 11.1818C2.49774 11.2988 2.42578 11.4629 2.42578 11.6348C2.42578 11.8066 2.49774 11.9707 2.62438 12.0877L5.52473 14.7661C5.77626 14.9984 6.1695 14.9839 6.40307 14.7337C6.63663 14.4836 6.62207 14.0925 6.37054 13.8602L4.62997 12.2529H11.7483C12.0916 12.2529 12.3698 11.9761 12.3698 11.6348C12.3698 11.2934 12.0916 11.0167 11.7483 11.0167H4.62997L6.37054 9.40932C6.62207 9.17704 6.63663 8.78596 6.40307 8.53581Z" fill="#1C1C1C"/>
</svg>
