<svg width="17" height="18" viewBox="0 0 17 18" fill="none" xmlns="http://www.w3.org/2000/svg">
<path fill-rule="evenodd" clip-rule="evenodd" d="M8.41518 4.38867C8.70122 4.38867 8.9331 4.61928 8.9331 4.90375V8.50926H12.5585C12.8446 8.50926 13.0765 8.73986 13.0765 9.02433C13.0765 9.3088 12.8446 9.5394 12.5585 9.5394H8.9331V13.1449C8.9331 13.4294 8.70122 13.66 8.41518 13.66C8.12914 13.66 7.89726 13.4294 7.89726 13.1449V9.5394H4.27183C3.98579 9.5394 3.75391 9.3088 3.75391 9.02433C3.75391 8.73986 3.98579 8.50926 4.27183 8.50926H7.89726V4.90375C7.89726 4.61928 8.12914 4.38867 8.41518 4.38867Z" fill="#1A1A1A"/>
</svg>
