<svg width="60" height="60" viewBox="0 0 60 60" fill="none" xmlns="http://www.w3.org/2000/svg">
<rect width="60" height="60" rx="30" fill="url(#paint0_linear_113_7211)" fill-opacity="0.1"/>
<rect x="0.5" y="0.5" width="59" height="59" rx="29.5" stroke="url(#paint1_linear_113_7211)" stroke-opacity="0.2"/>
<path d="M30 16.875C24.6843 16.875 20.375 21.1843 20.375 26.5C20.375 30.0592 22.3074 33.1661 25.176 34.8305C25.9757 35.2945 26.4765 36.0065 26.4992 36.723C26.5117 37.1182 26.7877 37.4559 27.1725 37.5469C27.5824 37.6437 28.0002 37.72 28.4245 37.7745C28.8021 37.823 29.1252 37.5206 29.1252 37.14V31.7021C28.7527 31.6609 28.3877 31.5937 28.0321 31.5021C27.5641 31.3817 27.2824 30.9046 27.4028 30.4367C27.5233 29.9687 28.0003 29.6869 28.4683 29.8074C28.9569 29.9331 29.4701 30.0002 30.0002 30.0002C30.5304 30.0002 31.0435 29.9331 31.5321 29.8074C32.0001 29.6869 32.4771 29.9687 32.5976 30.4367C32.718 30.9046 32.4363 31.3817 31.9683 31.5021C31.6127 31.5937 31.2477 31.6609 30.8752 31.7021V37.1399C30.8752 37.5206 31.1984 37.823 31.5759 37.7745C32.0001 37.72 32.4177 37.6437 32.8275 37.5469C33.2123 37.4559 33.4883 37.1182 33.5008 36.723C33.5235 36.0065 34.0243 35.2945 34.824 34.8305C37.6926 33.1661 39.625 30.0592 39.625 26.5C39.625 21.1843 35.3157 16.875 30 16.875Z" fill="#CAFF33"/>
<path fill-rule="evenodd" clip-rule="evenodd" d="M26.5153 39.2163C26.6054 38.7415 27.0633 38.4296 27.5381 38.5197C28.3349 38.6708 29.1578 38.75 30 38.75C30.8422 38.75 31.6651 38.6708 32.4619 38.5197C32.9367 38.4296 33.3946 38.7415 33.4847 39.2163C33.5747 39.691 33.2629 40.1489 32.7881 40.239C31.8843 40.4104 30.9522 40.5 30 40.5C29.0478 40.5 28.1157 40.4104 27.2119 40.239C26.7371 40.1489 26.4253 39.691 26.5153 39.2163Z" fill="#CAFF33"/>
<path fill-rule="evenodd" clip-rule="evenodd" d="M27.3797 42.068C27.43 41.5873 27.8604 41.2385 28.341 41.2887C28.886 41.3458 29.4394 41.375 30 41.375C30.5606 41.375 31.114 41.3458 31.659 41.2887C32.1396 41.2385 32.57 41.5873 32.6203 42.068C32.6705 42.5486 32.3217 42.979 31.841 43.0292C31.2357 43.0926 30.6215 43.125 30 43.125C29.3785 43.125 28.7643 43.0926 28.159 43.0292C27.6783 42.979 27.3295 42.5486 27.3797 42.068Z" fill="#CAFF33"/>
<defs>
<linearGradient id="paint0_linear_113_7211" x1="30" y1="-39.7297" x2="30" y2="154.865" gradientUnits="userSpaceOnUse">
<stop stop-color="#CAFF33"/>
<stop offset="0.467671" stop-color="#CAFF33" stop-opacity="0"/>
</linearGradient>
<linearGradient id="paint1_linear_113_7211" x1="30" y1="-104.189" x2="30" y2="114.324" gradientUnits="userSpaceOnUse">
<stop stop-color="#CAFF33"/>
<stop offset="0.716291" stop-color="#CAFF33" stop-opacity="0"/>
</linearGradient>
</defs>
</svg>
