<svg width="60" height="60" viewBox="0 0 60 60" fill="none" xmlns="http://www.w3.org/2000/svg">
<rect width="60" height="60" rx="30" fill="url(#paint0_linear_113_7230)" fill-opacity="0.1"/>
<rect x="0.5" y="0.5" width="59" height="59" rx="29.5" stroke="url(#paint1_linear_113_7230)" stroke-opacity="0.2"/>
<path fill-rule="evenodd" clip-rule="evenodd" d="M17.75 27.4711V29.5625C17.75 30.7706 18.7294 31.75 19.9375 31.75H40.0625C41.2706 31.75 42.25 30.7706 42.25 29.5625V27.4711C42.25 26.6356 41.9511 25.8276 41.4074 25.1933L37.5751 20.7222C36.9101 19.9465 35.9394 19.5 34.9177 19.5H25.0823C24.0606 19.5 23.0899 19.9465 22.4249 20.7222L18.5926 25.1933C18.0489 25.8276 17.75 26.6356 17.75 27.4711ZM25.0823 21.25C24.5715 21.25 24.0861 21.4732 23.7536 21.8611L20.5274 25.625H24.2201C25.3904 25.625 26.4832 26.2099 27.1323 27.1835L27.3238 27.4707C27.6483 27.9576 28.1947 28.25 28.7799 28.25H31.2201C31.8053 28.25 32.3517 27.9576 32.6762 27.4707L32.8677 27.1835C33.5168 26.2099 34.6096 25.625 35.7799 25.625H39.4726L36.2464 21.8611C35.9139 21.4732 35.4285 21.25 34.9177 21.25H25.0823Z" fill="#CAFF33"/>
<path d="M19.2812 33.5C18.4356 33.5 17.75 34.1856 17.75 35.0312V37C17.75 38.933 19.317 40.5 21.25 40.5H38.75C40.683 40.5 42.25 38.933 42.25 37V35.0312C42.25 34.1856 41.5644 33.5 40.7188 33.5H35.7799C34.6096 33.5 33.5168 34.0849 32.8677 35.0585L32.6762 35.3457C32.3517 35.8326 31.8053 36.125 31.2201 36.125H28.7799C28.1947 36.125 27.6483 35.8326 27.3238 35.3457L27.1323 35.0585C26.4832 34.0849 25.3904 33.5 24.2201 33.5H19.2812Z" fill="#CAFF33"/>
<defs>
<linearGradient id="paint0_linear_113_7230" x1="30" y1="-39.7297" x2="30" y2="154.865" gradientUnits="userSpaceOnUse">
<stop stop-color="#CAFF33"/>
<stop offset="0.467671" stop-color="#CAFF33" stop-opacity="0"/>
</linearGradient>
<linearGradient id="paint1_linear_113_7230" x1="30" y1="-104.189" x2="30" y2="114.324" gradientUnits="userSpaceOnUse">
<stop stop-color="#CAFF33"/>
<stop offset="0.716291" stop-color="#CAFF33" stop-opacity="0"/>
</linearGradient>
</defs>
</svg>
